<svg xmlns="http://www.w3.org/2000/svg" width="58" height="58" viewBox="0 0 58 58">
	<path d="M58,22.206v26h-8v-26H58z M47.998,25.86c0,0.011,0.002,0.022,0.002,0.033v18.999c0,6.99-12.363,12.314-18.55,12.314h-9.322
		c-0.201,0-0.397-0.021-0.596-0.032c-0.205,0.021-0.413,0.032-0.624,0.032h-6.816C8.733,57.206,6,54.474,6,51.114v-0.816
		c0-1.13,0.314-2.184,0.852-3.092h-0.76C2.733,47.206,0,44.474,0,41.114v-0.816c0-1.832,0.817-3.474,2.101-4.592
		C0.817,34.588,0,32.947,0,31.114v-0.816c0-2.65,1.704-4.904,4.072-5.74C3.397,23.577,3,22.392,3,21.114v-0.816
		c0-3.359,2.733-6.092,6.092-6.092h9.816c0.198,0,0.394,0.011,0.588,0.03c0.211-0.01,0.418-0.03,0.632-0.03H29V4.449l0.149-0.241
		c0.086-0.14,2.148-3.414,5.835-3.414c0.399,0,0.809,0.04,1.213,0.119c1.613,0.038,4.49,0.955,4.49,4.225
		c0,3.157,0.568,11.958,0.574,12.047l0.006,0.073c3.646,1.986,6.582,4.86,6.719,8.38C47.99,25.712,47.998,25.785,47.998,25.86z
		 M46,25.893c0-2.954-3.02-5.648-6.729-7.442c-0.012-0.162-0.023-0.323-0.035-0.477c-0.014-0.22-0.03-0.436-0.045-0.64
		c-0.01-0.15-0.02-0.289-0.03-0.432c-0.017-0.239-0.033-0.467-0.048-0.685c-0.01-0.132-0.02-0.262-0.027-0.387l0.09,0.028
		c-0.107-1.761-0.285-4.794-0.394-7.362c0-0.087,0-0.173,0-0.265c0-0.091-0.015-0.163-0.021-0.244
		c-0.045-1.118-0.074-2.123-0.074-2.85c0-2.093-2.166-2.222-2.601-2.226l-0.2-0.021c-0.304-0.064-0.607-0.096-0.902-0.096
		c-2.125,0-3.541,1.651-3.984,2.25V7.87v5.419v0.93v0.119v0.881v0.167v0.845c-0.184-0.008-0.373-0.025-0.55-0.025h-7.042
		C24.393,17.289,25,18.722,25,20.298v0.816c0,1.423-0.494,2.73-1.315,3.768C25.65,25.894,27,27.94,27,30.298v0.816
		c0,1.832-0.817,3.474-2.101,4.592C26.183,36.824,27,38.465,27,40.298v0.816c0,2.357-1.35,4.404-3.315,5.415
		C24.506,47.567,25,48.875,25,50.298v0.816c0,1.576-0.607,3.009-1.592,4.092h6.042c6.077,0,16.55-5.098,16.55-10.314V25.893z
		 M12.092,55.206h1.528h2.008h3.28c0.144,0,0.281-0.027,0.422-0.043c2.056-0.214,3.67-1.938,3.67-4.049v-0.816
		c0-1.258-0.583-2.372-1.48-3.123c-0.201,0.021-0.405,0.031-0.612,0.031H10.279H9.442c-0.053,0.045-0.111,0.085-0.161,0.133
		c-0.308,0.293-0.56,0.637-0.765,1.012C8.197,48.933,8,49.589,8,50.298v0.816C8,53.37,9.835,55.206,12.092,55.206z M6.092,45.206
		h1.924h0.741h0.259h1h2.076h6.816h2c0.373,0,0.728-0.066,1.071-0.16C23.714,44.571,25,42.997,25,41.114v-0.816
		c0-1.476-0.793-2.761-1.969-3.48c-0.621-0.381-1.343-0.611-2.123-0.611l0,0H10H9H8H6.092l0,0c-0.78,0-1.502,0.23-2.123,0.611
		C2.793,37.537,2,38.821,2,40.298v0.816C2,43.37,3.835,45.206,6.092,45.206z M3.969,34.595c0.662-0.246,1.376-0.389,2.123-0.389H8h1
		h1h10.908c0.747,0,1.46,0.143,2.123,0.389c1.176-0.72,1.969-2.004,1.969-3.48v-0.816c0-1.883-1.286-3.457-3.021-3.932
		c-0.343-0.094-0.698-0.16-1.071-0.16h-2H10H9.092H9H8H6.092c-0.098,0-0.19,0.022-0.287,0.029C3.684,26.385,2,28.14,2,30.298v0.816
		C2,32.591,2.793,33.875,3.969,34.595z M5,21.114c0,1.241,0.567,2.341,1.442,3.092h1.693h1.01h1.012h10.751
		c0.207,0,0.411,0.011,0.612,0.031c0.897-0.751,1.48-1.864,1.48-3.123v-0.816c0-2.124-1.633-3.855-3.706-4.053
		c-0.129-0.012-0.254-0.039-0.386-0.039h-3.517H13.26H9.092C6.835,16.206,5,18.041,5,20.298V21.114z"/>
</svg>
